<?xml version="1.0" encoding="iso-8859-1"?>
<!-- Generator: Adobe Illustrator 19.0.0, SVG Export Plug-In . SVG Version: 6.00 Build 0)  -->
<svg version="1.1" id="Layer_1" xmlns="http://www.w3.org/2000/svg" xmlns:xlink="http://www.w3.org/1999/xlink" x="0px" y="0px"
	 viewBox="0 0 511.999 511.999" style="enable-background:new 0 0 511.999 511.999;" xml:space="preserve">
<path style="fill:#CCCCCC;" d="M478.85,120.557v240.196H33.156V120.557c0-17.417,14.114-31.532,31.52-31.532h382.643
	C464.736,89.026,478.85,103.14,478.85,120.557z"/>
<path style="fill:#E6E6E6;" d="M478.85,120.557v240.196H215.991l76.183-271.728h155.144
	C464.736,89.026,478.85,103.14,478.85,120.557z"/>
<rect x="33.155" y="128.504" style="fill:#9BD7F4;" width="445.694" height="232.253"/>
<path style="fill:#CCCCCC;" d="M503.433,360.752v24.412c0,20.606-16.709,37.303-37.315,37.303H45.876
	c-20.606,0-37.303-16.697-37.303-37.303v-24.412H503.433z"/>
<polygon style="fill:#C8EDFC;" points="478.85,128.5 478.85,360.752 215.991,360.752 281.112,128.5 "/>
<path style="fill:#E6E6E6;" d="M503.433,360.752v24.412c0,20.606-16.709,37.303-37.315,37.303h-217.03l17.303-61.715H503.433z"/>
<path style="fill:#999999;" d="M294.121,391.611h-76.243c-12.082,0-21.877-9.794-21.877-21.877v-8.981h119.995v8.981
	C315.998,381.816,306.203,391.611,294.121,391.611z"/>
<path d="M503.429,352.433h-16.009V119.537c0-15.639-9.307-29.681-23.712-35.774c-4.36-1.843-9.39,0.195-11.234,4.555
	c-1.843,4.36,0.195,9.39,4.555,11.234c8.048,3.403,13.248,11.248,13.248,19.985v232.896h-35.319c-4.734,0-8.572,3.838-8.572,8.572
	c0,4.734,3.838,8.571,8.572,8.571h59.9v15.839c0,15.844-12.889,28.733-28.733,28.733H45.876
	c-15.844-0.001-28.733-12.89-28.733-28.734v-15.839h170.288v0.409c0,16.789,13.658,30.448,30.448,30.448h76.242
	c16.789,0,30.448-13.658,30.448-30.448v-0.409h80.103c4.734,0,8.572-3.838,8.572-8.572s-3.838-8.571-8.572-8.571H41.724V209.275
	c0-4.734-3.838-8.571-8.571-8.571s-8.571,3.838-8.571,8.571v143.159H8.571c-4.734,0-8.571,3.838-8.571,8.571v24.41
	c0,25.296,20.58,45.876,45.876,45.876h420.247c25.296,0,45.876-20.58,45.876-45.876v-24.41
	C512,356.271,508.162,352.433,503.429,352.433z M307.426,369.576v0.409c0,7.336-5.969,13.305-13.305,13.305h-76.242
	c-7.336,0-13.305-5.968-13.305-13.305v-0.409H307.426z"/>
<path d="M33.152,183.562c4.734,0,8.571-3.838,8.571-8.571v-55.454c0-11.958,9.728-21.686,21.687-21.686h362.598
	c4.734,0,8.572-3.838,8.572-8.571c0-4.734-3.838-8.571-8.572-8.571H63.41c-21.41,0-38.83,17.418-38.83,38.829v55.454
	C24.581,179.726,28.418,183.562,33.152,183.562z"/>
<path d="M178.328,195.066v83.429c0,17.645,14.356,32,32,32s32-14.356,32-32v-83.429c0-17.645-14.356-32-32-32
	S178.328,177.421,178.328,195.066z M225.186,195.066v83.429c0,8.192-6.665,14.857-14.857,14.857
	c-8.192,0-14.857-6.665-14.857-14.857v-83.429c0-8.192,6.665-14.857,14.857-14.857C218.52,180.209,225.186,186.873,225.186,195.066z
	"/>
<path d="M415.323,180.209c4.734,0,8.572-3.838,8.572-8.571s-3.838-8.571-8.572-8.571h-46.857c-4.734,0-8.571,3.838-8.571,8.571
	v130.287c0,4.734,3.838,8.572,8.571,8.572h46.857c4.734,0,8.572-3.838,8.572-8.572c0-4.734-3.838-8.571-8.572-8.571h-38.286v-47.848
	h18.96c4.734,0,8.571-3.838,8.571-8.571c0-4.734-3.838-8.571-8.571-8.571h-18.96v-48.152H415.323z"/>
<path d="M120.106,180.209c8.192,0,14.857,6.665,14.857,14.857c0,4.734,3.838,8.571,8.571,8.571s8.571-3.838,8.571-8.571
	c0-17.645-14.356-32-32-32s-32,14.356-32,32v83.429c0,17.645,14.356,32,32,32s32-14.356,32-32c0-4.734-3.838-8.572-8.571-8.572
	c-4.734,0-8.571,3.838-8.571,8.572c0,8.192-6.665,14.857-14.857,14.857s-14.857-6.665-14.857-14.857v-83.429
	C105.249,186.873,111.913,180.209,120.106,180.209z"/>
<path d="M277.123,204.306c-4.734,0-8.572,3.838-8.572,8.571v89.046c0,4.734,3.838,8.572,8.572,8.572h23.429
	c17.645,0,32-14.356,32-32v-83.429c0-17.645-14.356-32-32-32h-23.429c-4.734,0-8.571,3.838-8.571,8.571v14.954
	c0,4.734,3.838,8.571,8.571,8.571c4.734,0,8.572-3.838,8.572-8.571v-6.383h14.857c8.192,0,14.857,6.665,14.857,14.857v83.429
	c0,8.192-6.665,14.857-14.857,14.857h-14.857v-80.475C285.694,208.144,281.857,204.306,277.123,204.306z"/>
<path d="M456.001,128.752c0-4.734-3.838-8.571-8.571-8.571H64.57c-4.734,0-8.571,3.838-8.571,8.571c0,4.734,3.838,8.571,8.571,8.571
	h382.86C452.163,137.323,456.001,133.487,456.001,128.752z"/>
<g>
</g>
<g>
</g>
<g>
</g>
<g>
</g>
<g>
</g>
<g>
</g>
<g>
</g>
<g>
</g>
<g>
</g>
<g>
</g>
<g>
</g>
<g>
</g>
<g>
</g>
<g>
</g>
<g>
</g>
</svg>
